<svg width="32" height="40" viewBox="0 0 32 40" fill="none" xmlns="http://www.w3.org/2000/svg">
<path d="M15.7436 24.2759C11.6453 24.2697 7.7169 22.6372 4.82111 19.737C1.92531 16.8368 0.298829 12.9059 0.298833 8.80752C0.296343 5.80561 1.1819 2.87009 2.84406 0.370348L3.0925 0H28.362L28.6104 0.370348C30.2726 2.87009 31.1582 5.80561 31.1557 8.80752C31.1557 12.9002 29.5337 16.8262 26.645 19.7254C23.7563 22.6247 19.8363 24.261 15.7436 24.2759ZM3.99716 1.67336C2.66425 3.82233 1.96107 6.30221 1.96754 8.83098C1.96754 12.4803 3.41722 15.9801 5.99767 18.5606C8.57811 21.141 12.078 22.5906 15.7273 22.5906C19.3766 22.5906 22.8764 21.141 25.4568 18.5606C28.0373 15.9801 29.4869 12.4803 29.4869 8.83098C29.4934 6.30221 28.7902 3.82233 27.4573 1.67336H3.99716Z" fill="white"/>
<path d="M8.16582 13.3543C7.51124 13.3543 6.87139 13.1599 6.32746 12.7957C5.78353 12.4316 5.36001 11.9141 5.1106 11.3089C4.86119 10.7037 4.79715 10.038 4.92657 9.39635C5.05599 8.75469 5.37302 8.16589 5.83753 7.70468C6.30203 7.24347 6.89303 6.93062 7.5356 6.80578C8.17816 6.68093 8.84332 6.74975 9.44673 7.00347C10.0501 7.25718 10.5646 7.68444 10.9249 8.23095C11.2852 8.77746 11.4751 9.41868 11.4704 10.0732C11.463 10.9452 11.1117 11.7789 10.4929 12.3933C9.87411 13.0077 9.03783 13.3531 8.16582 13.3543ZM8.16582 7.58424C7.67818 7.58424 7.2015 7.72887 6.79604 7.99979C6.39059 8.2707 6.07456 8.65573 5.88795 9.10625C5.70134 9.55677 5.65252 10.0524 5.74766 10.5307C5.84279 11.009 6.07759 11.4483 6.42241 11.7931C6.76722 12.1379 7.20656 12.3727 7.68483 12.4678C8.1631 12.563 8.65884 12.5143 9.10936 12.3277C9.55988 12.141 9.94494 11.8249 10.2159 11.4195C10.4868 11.014 10.6314 10.5374 10.6314 10.0498C10.632 9.72539 10.5687 9.40404 10.4451 9.10411C10.3216 8.80417 10.1401 8.53143 9.91117 8.30161C9.68222 8.0718 9.41026 7.88933 9.11079 7.76462C8.81132 7.63991 8.49022 7.57541 8.16582 7.57479V7.58424Z" fill="white"/>
<path d="M12.0917 19.242C11.4371 19.2466 10.7959 19.0567 10.2494 18.6964C9.70292 18.3361 9.27573 17.8217 9.02202 17.2183C8.76831 16.6149 8.69948 15.9498 8.82433 15.3072C8.94918 14.6646 9.26206 14.0736 9.72327 13.6091C10.1845 13.1446 10.7732 12.8275 11.4149 12.698C12.0566 12.5686 12.7222 12.6327 13.3274 12.8821C13.9326 13.1315 14.4501 13.5551 14.8143 14.099C15.1784 14.643 15.3728 15.2827 15.3729 15.9373C15.3704 16.809 15.0247 17.6446 14.4106 18.2631C13.7964 18.8816 12.9633 19.2334 12.0917 19.242ZM12.0917 13.4718C11.6041 13.4718 11.1274 13.6164 10.7219 13.8873C10.3165 14.1582 10.0004 14.5433 9.81382 14.9938C9.62721 15.4443 9.57839 15.9401 9.67353 16.4184C9.76866 16.8967 10.0035 17.336 10.3483 17.6808C10.6931 18.0256 11.1324 18.2604 11.6107 18.3555C12.089 18.4507 12.5847 18.4018 13.0352 18.2152C13.4857 18.0286 13.8708 17.7126 14.1417 17.3071C14.4126 16.9017 14.5572 16.425 14.5572 15.9373C14.556 15.2838 14.2959 14.6574 13.8338 14.1953C13.3716 13.7332 12.7452 13.473 12.0917 13.4718Z" fill="white"/>
<path d="M15.9998 13.3543C15.3452 13.3543 14.7054 13.1599 14.1615 12.7957C13.6175 12.4316 13.194 11.9141 12.9446 11.3089C12.6952 10.7037 12.6311 10.038 12.7605 9.39635C12.89 8.75469 13.207 8.16589 13.6715 7.70468C14.136 7.24347 14.727 6.93062 15.3696 6.80578C16.0122 6.68093 16.6773 6.74975 17.2807 7.00347C17.8842 7.25718 18.3986 7.68444 18.7589 8.23095C19.1192 8.77746 19.309 9.41868 19.3044 10.0732C19.297 10.9452 18.9457 11.7789 18.3269 12.3933C17.7081 13.0077 16.8718 13.3531 15.9998 13.3543ZM15.9998 7.58424C15.5124 7.58516 15.0361 7.73045 14.6313 8.00193C14.2265 8.27341 13.9112 8.6588 13.7253 9.1094C13.5394 9.56 13.4912 10.0556 13.5869 10.5336C13.6826 11.0115 13.9177 11.4505 14.2627 11.7948C14.6077 12.1392 15.0471 12.3735 15.5252 12.4683C16.0033 12.563 16.4988 12.514 16.9491 12.3272C17.3993 12.1405 17.7841 11.8244 18.0548 11.419C18.3256 11.0137 18.47 10.5372 18.47 10.0498C18.4706 9.725 18.4072 9.4032 18.2834 9.10296C18.1595 8.80272 17.9776 8.52992 17.7482 8.30004C17.5187 8.07016 17.2462 7.88776 16.9462 7.76333C16.6462 7.6389 16.3246 7.57479 15.9998 7.57479V7.58424Z" fill="white"/>
<path d="M11.4746 7.01654C11.1037 7.01654 10.7412 6.90657 10.4329 6.70055C10.1246 6.49453 9.88425 6.20175 9.74234 5.85915C9.60044 5.51655 9.56329 5.13956 9.63563 4.77586C9.70798 4.41216 9.88656 4.07795 10.1488 3.81573C10.411 3.55352 10.7451 3.37497 11.1088 3.30262C11.4725 3.23028 11.8495 3.26743 12.1921 3.40934C12.5347 3.55125 12.8275 3.79163 13.0335 4.09997C13.2395 4.4083 13.3495 4.7708 13.3495 5.14163C13.3495 5.6389 13.1519 6.11577 12.8003 6.46739C12.4487 6.81901 11.9718 7.01654 11.4746 7.01654ZM11.4746 4.07293C11.2658 4.072 11.0614 4.13298 10.8874 4.24831C10.7133 4.36363 10.5774 4.52802 10.4968 4.72065C10.4163 4.91327 10.3947 5.12542 10.4349 5.33031C10.4751 5.5352 10.5752 5.72363 10.7225 5.8716C10.8698 6.01956 11.0577 6.12048 11.2624 6.16155C11.4671 6.20263 11.6794 6.18202 11.8724 6.10233C12.0654 6.02265 12.2303 5.8875 12.3464 5.71396C12.4625 5.54042 12.5245 5.33626 12.5245 5.12747C12.5245 4.84857 12.414 4.58099 12.2173 4.38334C12.0205 4.18569 11.7535 4.07417 11.4746 4.07293Z" fill="white"/>
<path d="M19.6718 7.01654C19.301 7.01654 18.9385 6.90657 18.6302 6.70055C18.3218 6.49453 18.0815 6.20175 17.9396 5.85915C17.7977 5.51655 17.7606 5.13956 17.8329 4.77586C17.9052 4.41216 18.0838 4.07795 18.346 3.81573C18.6083 3.55352 18.9423 3.37497 19.306 3.30262C19.6697 3.23028 20.0467 3.26743 20.3893 3.40934C20.7319 3.55125 21.0248 3.79163 21.2308 4.09997C21.4368 4.4083 21.5467 4.7708 21.5467 5.14163C21.5467 5.38785 21.4982 5.63167 21.404 5.85915C21.3098 6.08663 21.1717 6.29328 20.9976 6.46739C20.8235 6.64149 20.6168 6.77956 20.3893 6.87378C20.1618 6.96801 19.9181 7.01654 19.6718 7.01654ZM19.6718 4.07293C19.4632 4.07293 19.2593 4.13471 19.0859 4.25059C18.9124 4.36648 18.7773 4.53122 18.6974 4.72394C18.6176 4.91665 18.5967 5.12873 18.6374 5.33331C18.6781 5.5379 18.7786 5.72582 18.9261 5.87331C19.0736 6.02081 19.2615 6.12115 19.4661 6.16184C19.6706 6.20253 19.8827 6.18173 20.0754 6.1019C20.2681 6.02208 20.4329 5.88683 20.5487 5.71339C20.6646 5.53995 20.7265 5.33606 20.7265 5.12747C20.7265 4.84776 20.6154 4.57955 20.4176 4.38177C20.2198 4.18398 19.9515 4.07293 19.6718 4.07293Z" fill="white"/>
<path d="M23.5779 13.3541C22.9224 13.3588 22.2803 13.1683 21.7333 12.807C21.1862 12.4457 20.759 11.9298 20.506 11.325C20.253 10.7203 20.1856 10.0538 20.3124 9.41064C20.4391 8.76744 20.7543 8.17652 21.2179 7.71296C21.6815 7.2494 22.2724 6.93424 22.9156 6.80748C23.5588 6.68072 24.2252 6.74815 24.83 7.00116C25.4347 7.25418 25.9506 7.68135 26.3119 8.22836C26.6732 8.77537 26.8637 9.41753 26.8591 10.0731C26.8517 10.941 26.5037 11.7713 25.8899 12.385C25.2762 12.9988 24.4459 13.3468 23.5779 13.3541ZM23.5779 7.58408C23.0903 7.58408 22.6136 7.72871 22.2081 7.99963C21.8027 8.27055 21.4867 8.65557 21.3001 9.10609C21.1135 9.55661 21.0646 10.0523 21.1597 10.5306C21.2549 11.0088 21.4897 11.4481 21.8345 11.7929C22.1793 12.1378 22.6186 12.3726 23.0969 12.4677C23.5752 12.5628 24.0709 12.5141 24.5214 12.3275C24.972 12.1409 25.357 11.8248 25.6279 11.4193C25.8989 11.0138 26.0435 10.5373 26.0435 10.0496C26.0441 9.72523 25.9808 9.40389 25.8572 9.10395C25.7337 8.80401 25.5522 8.53127 25.3233 8.30146C25.0943 8.07164 24.8223 7.88917 24.5229 7.76446C24.2234 7.63975 23.9023 7.57525 23.5779 7.57464V7.58408Z" fill="white"/>
<path d="M19.7792 19.2038C19.1312 19.1992 18.4992 19.0029 17.9627 18.6395C17.4262 18.2762 17.0093 17.7621 16.7646 17.1621C16.5198 16.5622 16.4582 15.9033 16.5874 15.2683C16.7167 14.6334 17.031 14.0509 17.4908 13.5944C17.9506 13.1379 18.5353 12.8277 19.1711 12.7029C19.8069 12.5782 20.4654 12.6446 21.0636 12.8936C21.6618 13.1426 22.1729 13.5632 22.5324 14.1022C22.8919 14.6413 23.0837 15.2747 23.0838 15.9226C23.0764 16.7946 22.7251 17.6284 22.1063 18.2429C21.4875 18.8573 20.6512 19.2026 19.7792 19.2038ZM19.7792 13.4383C19.2915 13.4383 18.8149 13.583 18.4094 13.8539C18.0039 14.1248 17.6879 14.5098 17.5013 14.9604C17.3147 15.4109 17.2659 15.9067 17.361 16.385C17.4561 16.8632 17.691 17.3025 18.0358 17.6473C18.3806 17.9922 18.8199 18.227 19.2982 18.3221C19.7765 18.4172 20.2722 18.3684 20.7227 18.1818C21.1732 17.9952 21.5583 17.6792 21.8292 17.2737C22.1001 16.8683 22.2447 16.3915 22.2447 15.9039C22.2435 15.2504 21.9833 14.624 21.5212 14.1619C21.0591 13.6998 20.4327 13.4396 19.7792 13.4383Z" fill="white"/>
<path fill-rule="evenodd" clip-rule="evenodd" d="M24.8276 27.0351H7.17241C4.12533 27.0351 1.65517 29.5052 1.65517 32.5523C1.65517 35.5994 4.12532 38.0695 7.17241 38.0695H24.8276C27.8747 38.0695 30.3448 35.5994 30.3448 32.5523C30.3448 29.5052 27.8747 27.0351 24.8276 27.0351ZM7.17241 25.3799C3.2112 25.3799 0 28.5911 0 32.5523C0 36.5135 3.2112 39.7247 7.17241 39.7247H24.8276C28.7888 39.7247 32 36.5135 32 32.5523C32 28.5911 28.7888 25.3799 24.8276 25.3799H7.17241Z" fill="white"/>
<path fill-rule="evenodd" clip-rule="evenodd" d="M9.37763 36.4135C11.5106 36.4135 13.2397 34.6844 13.2397 32.5515C13.2397 30.4185 11.5106 28.6894 9.37763 28.6894C7.24467 28.6894 5.51556 30.4185 5.51556 32.5515C5.51556 34.6844 7.24467 36.4135 9.37763 36.4135ZM9.37763 37.517C12.12 37.517 14.3431 35.2938 14.3431 32.5515C14.3431 29.8091 12.12 27.5859 9.37763 27.5859C6.63525 27.5859 4.41211 29.8091 4.41211 32.5515C4.41211 35.2938 6.63525 37.517 9.37763 37.517Z" fill="white"/>
<path fill-rule="evenodd" clip-rule="evenodd" d="M22.6218 36.4135C24.7547 36.4135 26.4838 34.6844 26.4838 32.5515C26.4838 30.4185 24.7547 28.6894 22.6218 28.6894C20.4888 28.6894 18.7597 30.4185 18.7597 32.5515C18.7597 34.6844 20.4888 36.4135 22.6218 36.4135ZM22.6218 37.517C25.3641 37.517 27.5873 35.2938 27.5873 32.5515C27.5873 29.8091 25.3641 27.5859 22.6218 27.5859C19.8794 27.5859 17.6562 29.8091 17.6562 32.5515C17.6562 35.2938 19.8794 37.517 22.6218 37.517Z" fill="white"/>
</svg>
