<svg width="52" height="52" viewBox="0 0 52 52" fill="none" xmlns="http://www.w3.org/2000/svg">
<path d="M43.8321 24.0017C43.771 23.7416 43.6468 23.5006 43.4704 23.3C43.2939 23.0993 43.0708 22.9453 42.8206 22.8515L31.1145 18.4617L34.0935 3.5667C34.1628 3.22001 34.1172 2.86017 33.9635 2.54176C33.8098 2.22335 33.5565 1.96374 33.242 1.80232C32.9274 1.64089 32.5688 1.58646 32.2205 1.64726C31.8722 1.70807 31.5533 1.88081 31.312 2.13927L8.56204 26.5143C8.37975 26.7096 8.24843 26.9468 8.1797 27.205C8.11096 27.4632 8.10695 27.7343 8.168 27.9944C8.22905 28.2545 8.35329 28.4955 8.52971 28.6961C8.70613 28.8967 8.9293 29.0508 9.17945 29.1446L20.8856 33.5344L17.9066 48.4294C17.8372 48.7761 17.8828 49.1359 18.0365 49.4544C18.1902 49.7728 18.4435 50.0324 18.7581 50.1939C19.0726 50.3553 19.4313 50.4097 19.7796 50.3489C20.1279 50.2881 20.4468 50.1153 20.6881 49.8568L43.4381 25.4818C43.6203 25.2865 43.7516 25.0492 43.8204 24.7911C43.8891 24.5329 43.8931 24.2618 43.8321 24.0017V24.0017Z" fill="white"/>
</svg>
