<svg width="92" height="71" viewBox="0 0 92 71" fill="none" xmlns="http://www.w3.org/2000/svg">
<path d="M57.8392 0.110001C53.9321 0.558357 50.1957 2.43719 47.5696 5.28747C46.9825 5.9173 46.1498 6.93145 45.883 7.33711L45.7228 7.58264L43.1074 7.19833C39.5099 6.66457 38.7092 6.58984 37.4175 6.72862C36.0404 6.8674 35.1864 7.0809 32.9126 7.87087C28.7386 9.32269 26.5609 10.0273 25.7068 10.2087C24.4685 10.4649 21.8211 10.4649 20.6148 10.2087C19.2697 9.92051 19.0242 9.8351 10.1958 6.35499C5.63748 4.56156 1.75171 3.08838 1.57023 3.08838C0.171781 3.08838 -0.532781 4.82844 0.492037 5.77853C0.673515 5.96001 2.60573 6.77132 6.01111 8.10572C8.89341 9.23729 12.6084 10.6998 14.2844 11.3617C19.3658 13.3686 19.8995 13.4967 23.1448 13.4967C24.9489 13.4967 25.6321 13.454 26.3474 13.3045C26.8491 13.1978 29.3257 12.4185 31.8451 11.5752C34.3751 10.7211 36.745 9.98456 37.1293 9.92051C38.2288 9.7497 39.1042 9.7924 41.3674 10.1233C42.5309 10.3048 45.7869 10.7852 48.6051 11.2015C53.9427 11.9915 54.263 12.0662 54.6793 12.632C54.9996 13.059 54.9889 14.0198 54.6686 14.4681C54.1989 15.1193 54.0495 15.1407 50.1851 15.2154C42.2641 15.3649 41.5488 15.3969 41.2179 15.6424C41.0578 15.7598 40.6094 16.411 40.2144 17.0836C39.2537 18.7489 32.4642 30.5236 30.9804 33.0857C28.5998 37.2277 27.3615 39.3627 27.1907 39.5975L27.0199 39.8538L25.0023 38.957C21.8744 37.5799 21.8424 37.5586 19.0242 34.7297C17.6684 33.3739 16.2273 31.9861 15.8323 31.6445C14.989 30.94 13.6652 30.0539 12.7365 29.5842C11.5409 28.9864 2.06129 25.1006 1.74103 25.0686C1.13255 25.0259 0.95107 25.0793 0.566763 25.4102C-0.137799 26.0294 -0.191175 27.0435 0.438661 27.652C0.694866 27.8975 1.87981 28.442 4.99697 29.7337C11.2847 32.3491 11.242 32.3277 12.0106 32.7974C13.3023 33.5661 13.9748 34.1532 16.6329 36.8327C19.7287 39.9392 20.1771 40.2701 23.1768 41.5938C24.2977 42.0955 25.2692 42.5439 25.3225 42.5973C25.3866 42.6507 25.3119 42.8962 25.1411 43.2058C24.5859 44.2199 24.5646 44.9565 25.0663 46.1628C25.1944 46.4724 25.1624 46.5578 24.2123 48.1911C23.6465 49.1625 23.1982 50.0699 23.1768 50.2834C23.1021 50.7958 23.3049 51.3936 23.6465 51.6605C23.9775 51.9274 23.9988 51.8633 22.8566 53.8276C22.3975 54.6282 22.0346 55.3755 22.0026 55.6103C21.9278 56.1334 22.1307 56.7312 22.4616 56.9874C22.6004 57.0942 22.7178 57.2223 22.7178 57.2543C22.7178 57.297 21.9385 58.6848 20.9777 60.3394C20.017 61.9941 18.5758 64.4921 17.7752 65.8799C16.9639 67.2783 16.2806 68.5593 16.2486 68.7302C16.0778 69.5842 16.6543 70.4702 17.4763 70.609C17.9246 70.6837 18.6932 70.4275 18.9388 70.1179C19.0135 70.0325 20.4867 67.4918 22.2374 64.4707C23.9775 61.4497 25.44 58.941 25.4827 58.8983C25.5787 58.7915 27.511 59.9018 27.5216 60.0619C27.5216 60.1259 26.4328 62.0688 25.0984 64.3853C22.8672 68.2498 22.6751 68.6234 22.6751 69.0931C22.6751 69.9471 23.3156 70.5876 24.191 70.5983C25.0663 70.6197 25.2798 70.3848 26.7103 67.8975C28.5571 64.7056 29.4111 63.2324 29.8915 62.4211L30.3185 61.7059L30.9697 61.7592C31.9625 61.8553 32.176 61.6632 33.3076 59.7203C33.82 58.8342 34.2577 58.0763 34.279 58.0336C34.2897 57.9802 34.5139 57.9909 34.7594 58.055C35.3252 58.2151 35.923 58.0656 36.286 57.6813C36.4247 57.5319 36.9798 56.6565 37.5029 55.7384L38.4637 54.0624L39.1256 53.9984C39.7767 53.9343 40.524 53.5927 40.887 53.1977C40.983 53.0803 41.6342 51.9808 42.3388 50.7531L43.6305 48.5113H44.8368C45.8189 48.5007 46.1498 48.458 46.6409 48.2658C47.5269 47.9135 48.1995 47.4225 48.7119 46.7713C49.3097 46.0027 49.6193 45.1807 49.694 44.1665L49.7581 43.3339L50.1424 43.2271C51.1458 42.9496 52.3201 41.9888 52.8539 41.0067C53.1955 40.3662 53.4623 39.3947 53.4623 38.7435V38.2631L54.0175 38.0603C56.4407 37.2063 57.7324 34.5589 56.9104 32.1356C56.761 31.6872 56.761 31.6659 57.0065 31.5057C58.042 30.8119 58.9707 29.3494 59.0882 28.2285L59.1522 27.62L59.8568 27.7054C60.2411 27.7588 65.6321 27.8015 71.8237 27.8015H83.086L83.6411 27.5132C83.9507 27.3424 84.3564 27.0755 84.5592 26.8941C85.0929 26.4244 85.5947 25.4209 85.6801 24.6202L85.7548 23.9584L88.3916 23.905C90.8362 23.8516 91.0497 23.841 91.3273 23.6275C91.4874 23.51 91.7116 23.2431 91.8076 23.0403C91.9891 22.6987 91.9998 22.0475 91.9998 13.9557C91.9998 4.25198 92.0318 4.66831 91.2846 4.1559C90.9003 3.88902 90.8682 3.88902 88.2955 3.85699L85.7014 3.82497V3.37661C85.6908 2.84285 85.3278 1.89276 84.9115 1.34833C84.7513 1.13482 84.3884 0.825241 84.1215 0.643761C83.0647 -0.0287781 83.545 -0.0074234 70.4893 0.00325012C63.9774 0.0139236 58.2769 0.0566254 57.8392 0.110001ZM82.4348 3.36594C82.5843 3.51539 82.6056 4.61494 82.6056 13.9344C82.6056 24.1932 82.6056 24.332 82.3921 24.5455C82.1786 24.759 82.0398 24.759 71.9625 24.759C60.7108 24.759 60.3051 24.7377 58.4583 24.1185C57.9139 23.937 56.9104 23.478 56.2379 23.1044C54.7754 22.3037 54.327 22.165 53.1955 22.1756C51.0604 22.1863 49.2563 23.5848 48.7226 25.6451L48.5838 26.2002L48.0073 26.1682C47.2814 26.1255 46.1071 26.3923 45.4453 26.7553C44.3351 27.3531 43.4063 28.5914 43.1074 29.8724C42.9473 30.5663 43.0113 31.7726 43.2675 32.4879C43.4383 33.0003 43.4383 33.0003 43.1928 33.1711C42.6697 33.5234 41.9118 34.4201 41.5915 35.0926C41.1645 36.0107 41.0578 37.3878 41.346 38.3699L41.5275 39.0104L41.1645 39.2773C40.4706 39.7897 39.9796 40.3982 39.5953 41.1882C39.2216 41.9674 39.211 42.0422 39.211 43.1737C39.211 44.2733 39.2323 44.3907 39.5526 45.0632C39.734 45.4582 40.1184 46.024 40.3959 46.3229C40.6628 46.6111 40.8656 46.9207 40.8336 46.9955C40.7589 47.1983 38.8373 50.5183 38.7413 50.625C38.6879 50.6784 37.962 50.3048 37.1186 49.8137C36.2753 49.3226 33.9481 47.9776 31.9518 46.8247C29.9556 45.6611 28.2582 44.6789 28.1728 44.6256C28.0234 44.5295 28.1408 44.2733 29.0802 42.6934C29.4538 42.0528 33.2329 35.5196 35.5494 31.4844C38.6772 26.0614 42.6164 19.2399 42.8512 18.877L43.0861 18.4927L48.3596 18.418C52.1493 18.3646 53.8253 18.3005 54.3484 18.1938C56.2486 17.7988 57.7111 16.2616 58.0527 14.2653C58.3943 12.3117 57.2947 10.1874 55.4693 9.29067C54.7434 8.92771 54.5939 8.89569 51.4447 8.42598C50.3132 8.25518 49.3631 8.09505 49.3311 8.06302C49.2456 7.97762 50.9217 6.35499 51.7009 5.77853C53.2061 4.66831 55.2131 3.79295 57.1453 3.40864C58.0313 3.22716 58.9814 3.21648 70.1904 3.20581C81.0364 3.19514 82.2854 3.21648 82.4348 3.36594ZM88.7972 13.9237V20.8199L87.2814 20.7879L85.7548 20.7558L85.7228 13.8917L85.7014 7.0382H87.2493H88.7972V13.9237ZM54.5405 25.7732C55.4266 26.2963 55.6935 26.5418 55.8856 26.9901C56.3447 28.0683 55.2344 29.3494 54.1029 29.0291C53.5264 28.8583 52.128 27.9723 51.9358 27.6413C51.6689 27.2036 51.7009 26.3496 51.9892 25.9867C52.6297 25.1647 53.4197 25.1006 54.5405 25.7732ZM50.4092 30.6411C53.3449 32.3384 53.6438 32.5306 53.8467 32.9683C54.0495 33.4059 53.9961 34.1318 53.7292 34.5375C53.4837 34.9111 52.6831 35.2634 52.2454 35.178C51.8397 35.1033 47.2601 32.4879 46.7156 32.0182C45.6161 31.0681 46.2459 29.3494 47.6871 29.3494C48.1034 29.3494 48.4664 29.5202 50.4092 30.6411ZM46.7156 35.7972C48.1995 36.5551 49.8008 37.5693 50.0249 37.8895C50.4733 38.5407 50.2491 39.6829 49.6086 40.0246C49.1602 40.2701 48.7759 40.3341 48.3703 40.2167C47.7618 40.0459 44.8261 38.3058 44.5806 37.9642C44.0895 37.2704 44.2924 36.2669 45.0183 35.7865C45.488 35.4662 46.0751 35.4769 46.7156 35.7972ZM45.1357 42.1062C45.52 42.3304 45.9577 42.6293 46.1285 42.7788C46.8437 43.4513 46.6623 44.743 45.7762 45.202C45.2318 45.4796 44.6553 45.4049 43.8013 44.9351C42.8619 44.4121 42.5096 44.0705 42.3388 43.526C42.232 43.1737 42.2427 43.035 42.4242 42.608C42.8726 41.5298 43.8333 41.3483 45.1357 42.1062ZM31.6636 50.3261C33.6385 51.4684 35.3465 52.4612 35.4426 52.5359C35.6134 52.664 35.5921 52.7387 35.1437 53.5073C34.8021 54.1051 34.61 54.3293 34.5032 54.2866C34.4071 54.2546 33.2756 53.6034 31.9732 52.8561C30.6708 52.0982 28.9948 51.1374 28.2369 50.6997L26.8811 49.9205L27.2654 49.2159C27.7245 48.3939 27.8312 48.2445 27.97 48.2445C28.0234 48.2445 29.6887 49.1839 31.6636 50.3261ZM28.6318 54.5855C29.4645 55.0766 30.4039 55.621 30.7242 55.8025C31.0444 55.984 31.3754 56.1868 31.4608 56.2402C31.5782 56.3149 31.5141 56.4964 31.1619 57.1476C30.9163 57.5852 30.6708 57.9802 30.6281 58.0016C30.5641 58.0443 25.9417 55.4502 25.7602 55.2687C25.7282 55.2367 25.9203 54.8204 26.1872 54.34C26.6463 53.5393 26.6996 53.486 26.9025 53.5927C27.0306 53.6568 27.8099 54.1051 28.6318 54.5855Z" fill="white"/>
<path d="M71.3215 6.08739C71.14 6.14076 70.8625 6.32224 70.713 6.48237C70.0939 7.13356 65.9519 13.2611 65.8878 13.6134C65.7597 14.318 66.0693 14.9371 66.7098 15.2681C67.0728 15.4495 67.3503 15.4709 69.1011 15.4709C70.1899 15.4709 71.076 15.5029 71.076 15.5349C71.076 15.567 70.4888 16.4423 69.7843 17.4778C68.3218 19.5915 68.151 19.9331 68.2577 20.4242C68.4926 21.5451 69.6882 22.1215 70.6063 21.5664C70.9479 21.3636 75.3461 15.1079 75.6343 14.414C75.8264 13.9764 75.7304 13.3465 75.4315 12.9622C75.0151 12.4285 74.7803 12.3858 72.5812 12.3751C71.2895 12.3644 70.5422 12.3217 70.5422 12.247C70.5422 12.1936 71.1507 11.2755 71.898 10.208C73.179 8.37188 73.2537 8.2331 73.2964 7.67799C73.3284 7.19761 73.2964 7.0268 73.0829 6.71722C72.6879 6.14076 71.9834 5.88456 71.3215 6.08739Z" fill="white"/>
</svg>
